<?xml version="1.0" encoding="UTF-8" standalone="no"?>
<!DOCTYPE svg PUBLIC "-//W3C//DTD SVG 1.1//EN"
 "http://www.w3.org/Graphics/SVG/1.1/DTD/svg11.dtd">
<!-- Generated by graphviz version 2.43.0 (0)
 -->
<!-- Title: Synapse_MAS_Architecture Pages: 1 -->
<svg width="1080pt" height="1438pt"
 viewBox="0.00 0.00 1080.00 1438.06" xmlns="http://www.w3.org/2000/svg" xmlns:xlink="http://www.w3.org/1999/xlink">
<g id="graph0" class="graph" transform="scale(0.73 0.73) rotate(0) translate(4 1968)">
<title>Synapse_MAS_Architecture</title>
<polygon fill="white" stroke="transparent" points="-4,4 -4,-1968 1477,-1968 1477,4 -4,4"/>
<g id="clust1" class="cluster">
<title>cluster_0</title>
<polygon fill="#ffffff" stroke="#f9f9f9" points="659,-1086.27 659,-1939.1 1001,-1939.1 1001,-1086.27 659,-1086.27"/>
<text text-anchor="middle" x="830" y="-1923.9" font-family="Arial Bold" font-size="14.00">① BUSINESS LAYER — Capa de Presentación</text>
</g>
<g id="clust2" class="cluster">
<title>cluster_b_row1</title>
</g>
<g id="clust3" class="cluster">
<title>cluster_b_row2</title>
</g>
<g id="clust4" class="cluster">
<title>cluster_b_row3</title>
</g>
<g id="clust5" class="cluster">
<title>cluster_1</title>
<polygon fill="#f0fbff" stroke="#f9f9f9" points="302,-336.15 302,-1008.46 1465,-1008.46 1465,-336.15 302,-336.15"/>
<text text-anchor="middle" x="883.5" y="-993.26" font-family="Arial Bold" font-size="14.00">② APPLICATION LAYER — Capa de Aplicación</text>
</g>
<g id="clust6" class="cluster">
<title>cluster_staged</title>
<polygon fill="none" stroke="#999999" stroke-dasharray="5,2" points="1021,-678.53 1021,-911.97 1457,-911.97 1457,-678.53 1021,-678.53"/>
<text text-anchor="middle" x="1239" y="-896.77" font-family="Arial Bold" font-size="14.00">Componentes Staged</text>
</g>
<g id="clust7" class="cluster">
<title>cluster_rag</title>
<polygon fill="#f0fbff" stroke="#e0f7fa" points="670,-361.05 670,-594.49 923,-594.49 923,-361.05 670,-361.05"/>
<text text-anchor="middle" x="796.5" y="-579.29" font-family="Arial Bold" font-size="14.00">Pipeline RAG / Indexing</text>
</g>
<g id="clust8" class="cluster">
<title>cluster_chat</title>
<polygon fill="#f0fbff" stroke="#e0f7fa" points="377,-361.05 377,-594.49 662,-594.49 662,-361.05 377,-361.05"/>
<text text-anchor="middle" x="519.5" y="-579.29" font-family="Arial Bold" font-size="14.00">Pipeline Chat — Agentic Loop</text>
</g>
<g id="clust9" class="cluster">
<title>cluster_2</title>
<polygon fill="#f0f7ff" stroke="#f9f9f9" points="8,-24.9 8,-258.34 966,-258.34 966,-24.9 8,-24.9"/>
<text text-anchor="middle" x="487" y="-243.14" font-family="Arial Bold" font-size="14.00">③ DATA LAYER — Capa de Datos</text>
</g>
<g id="clust10" class="cluster">
<title>cluster_3</title>
<polygon fill="#f1f8f1" stroke="#f9f9f9" points="52,-1111.17 52,-1596.72 651,-1596.72 651,-1111.17 52,-1111.17"/>
<text text-anchor="middle" x="351.5" y="-1581.52" font-family="Arial Bold" font-size="14.00">④ TECHNOLOGY LAYER — Capa de Tecnología</text>
</g>
<!-- ACTOR -->
<g id="node1" class="node">
<title>ACTOR</title>
<path fill="#fff9c4" stroke="black" d="M790.5,-1461.9C790.5,-1461.9 699.5,-1461.9 699.5,-1461.9 693.5,-1461.9 687.5,-1455.9 687.5,-1449.9 687.5,-1449.9 687.5,-1437.9 687.5,-1437.9 687.5,-1431.9 693.5,-1425.9 699.5,-1425.9 699.5,-1425.9 790.5,-1425.9 790.5,-1425.9 796.5,-1425.9 802.5,-1431.9 802.5,-1437.9 802.5,-1437.9 802.5,-1449.9 802.5,-1449.9 802.5,-1455.9 796.5,-1461.9 790.5,-1461.9"/>
<text text-anchor="middle" x="745" y="-1446.9" font-family="Arial" font-size="10.00">👤 Técnico / Ingeniero</text>
<text text-anchor="middle" x="745" y="-1435.9" font-family="Arial" font-size="10.00">(Business Actor)</text>
</g>
<!-- PROC_DL -->
<g id="node5" class="node">
<title>PROC_DL</title>
<path fill="#fff9c4" stroke="black" d="M803,-1209.9C803,-1209.9 687,-1209.9 687,-1209.9 681,-1209.9 675,-1203.9 675,-1197.9 675,-1197.9 675,-1185.9 675,-1185.9 675,-1179.9 681,-1173.9 687,-1173.9 687,-1173.9 803,-1173.9 803,-1173.9 809,-1173.9 815,-1179.9 815,-1185.9 815,-1185.9 815,-1197.9 815,-1197.9 815,-1203.9 809,-1209.9 803,-1209.9"/>
<text text-anchor="middle" x="745" y="-1194.9" font-family="Arial" font-size="10.00">📋 Consulta de Diagnóstico</text>
<text text-anchor="middle" x="745" y="-1183.9" font-family="Arial" font-size="10.00">(Business Process)</text>
</g>
<!-- ACTOR&#45;&gt;PROC_DL -->
<g id="edge1" class="edge">
<title>ACTOR&#45;&gt;PROC_DL</title>
<path fill="none" stroke="#666666" d="M745,-1425.78C745,-1425.78 745,-1220.2 745,-1220.2"/>
<polygon fill="#666666" stroke="#666666" points="748.5,-1220.2 745,-1210.2 741.5,-1220.2 748.5,-1220.2"/>
<text text-anchor="middle" x="762" y="-1316" font-family="Arial" font-size="8.00">triggering</text>
</g>
<!-- ROLE_ADMIN -->
<g id="node2" class="node">
<title>ROLE_ADMIN</title>
<path fill="#fff9c4" stroke="black" d="M901,-1461.9C901,-1461.9 833,-1461.9 833,-1461.9 827,-1461.9 821,-1455.9 821,-1449.9 821,-1449.9 821,-1437.9 821,-1437.9 821,-1431.9 827,-1425.9 833,-1425.9 833,-1425.9 901,-1425.9 901,-1425.9 907,-1425.9 913,-1431.9 913,-1437.9 913,-1437.9 913,-1449.9 913,-1449.9 913,-1455.9 907,-1461.9 901,-1461.9"/>
<text text-anchor="middle" x="867" y="-1446.9" font-family="Arial" font-size="10.00">👔 Administrador</text>
<text text-anchor="middle" x="867" y="-1435.9" font-family="Arial" font-size="10.00">(Business Role)</text>
</g>
<!-- PROC_IDX -->
<g id="node6" class="node">
<title>PROC_IDX</title>
<path fill="#fff9c4" stroke="black" d="M973,-1209.9C973,-1209.9 845,-1209.9 845,-1209.9 839,-1209.9 833,-1203.9 833,-1197.9 833,-1197.9 833,-1185.9 833,-1185.9 833,-1179.9 839,-1173.9 845,-1173.9 845,-1173.9 973,-1173.9 973,-1173.9 979,-1173.9 985,-1179.9 985,-1185.9 985,-1185.9 985,-1197.9 985,-1197.9 985,-1203.9 979,-1209.9 973,-1209.9"/>
<text text-anchor="middle" x="909" y="-1194.9" font-family="Arial" font-size="10.00">📤 Indexación de Documentos</text>
<text text-anchor="middle" x="909" y="-1183.9" font-family="Arial" font-size="10.00">(Business Process)</text>
</g>
<!-- ROLE_ADMIN&#45;&gt;PROC_IDX -->
<g id="edge2" class="edge">
<title>ROLE_ADMIN&#45;&gt;PROC_IDX</title>
<path fill="none" stroke="#666666" d="M873,-1425.78C873,-1425.78 873,-1220.2 873,-1220.2"/>
<polygon fill="#666666" stroke="#666666" points="876.5,-1220.2 873,-1210.2 869.5,-1220.2 876.5,-1220.2"/>
<text text-anchor="middle" x="905" y="-1316" font-family="Arial" font-size="8.00">triggering</text>
</g>
<!-- SERV_AUTH -->
<g id="node3" class="node">
<title>SERV_AUTH</title>
<path fill="#fff9c4" stroke="black" d="M972.5,-1779.9C972.5,-1779.9 897.5,-1779.9 897.5,-1779.9 891.5,-1779.9 885.5,-1773.9 885.5,-1767.9 885.5,-1767.9 885.5,-1755.9 885.5,-1755.9 885.5,-1749.9 891.5,-1743.9 897.5,-1743.9 897.5,-1743.9 972.5,-1743.9 972.5,-1743.9 978.5,-1743.9 984.5,-1749.9 984.5,-1755.9 984.5,-1755.9 984.5,-1767.9 984.5,-1767.9 984.5,-1773.9 978.5,-1779.9 972.5,-1779.9"/>
<text text-anchor="middle" x="935" y="-1764.9" font-family="Arial" font-size="10.00">🔐 Autenticación</text>
<text text-anchor="middle" x="935" y="-1753.9" font-family="Arial" font-size="10.00">(Business Service)</text>
</g>
<!-- INT_DASH -->
<g id="node4" class="node">
<title>INT_DASH</title>
<path fill="#fff9c4" stroke="black" d="M855,-1779.9C855,-1779.9 775,-1779.9 775,-1779.9 769,-1779.9 763,-1773.9 763,-1767.9 763,-1767.9 763,-1755.9 763,-1755.9 763,-1749.9 769,-1743.9 775,-1743.9 775,-1743.9 855,-1743.9 855,-1743.9 861,-1743.9 867,-1749.9 867,-1755.9 867,-1755.9 867,-1767.9 867,-1767.9 867,-1773.9 861,-1779.9 855,-1779.9"/>
<text text-anchor="middle" x="815" y="-1764.9" font-family="Arial" font-size="10.00">📊 Dashboard Web</text>
<text text-anchor="middle" x="815" y="-1753.9" font-family="Arial" font-size="10.00">(Business Interface)</text>
</g>
<!-- INT_DASH&#45;&gt;ROLE_ADMIN -->
<g id="edge3" class="edge">
<title>INT_DASH&#45;&gt;ROLE_ADMIN</title>
<path fill="none" stroke="#666666" d="M844,-1743.89C844,-1743.89 844,-1472.11 844,-1472.11"/>
<polygon fill="#666666" stroke="#666666" points="847.5,-1472.1 844,-1462.11 840.5,-1472.11 847.5,-1472.1"/>
<text text-anchor="middle" x="854" y="-1634" font-family="Arial" font-size="8.00">serving</text>
</g>
<!-- SERV_CHAT -->
<g id="node17" class="node">
<title>SERV_CHAT</title>
<path fill="#b2ebf2" stroke="black" d="M694,-777.9C694,-777.9 588,-777.9 588,-777.9 582,-777.9 576,-771.9 576,-765.9 576,-765.9 576,-753.9 576,-753.9 576,-747.9 582,-741.9 588,-741.9 588,-741.9 694,-741.9 694,-741.9 700,-741.9 706,-747.9 706,-753.9 706,-753.9 706,-765.9 706,-765.9 706,-771.9 700,-777.9 694,-777.9"/>
<text text-anchor="middle" x="641" y="-757.4" font-family="Arial" font-size="10.00">💬 Servicio de Chat RAG</text>
</g>
<!-- PROC_DL&#45;&gt;SERV_CHAT -->
<g id="edge4" class="edge">
<title>PROC_DL&#45;&gt;SERV_CHAT</title>
<path fill="none" stroke="#666666" d="M690.5,-1173.89C690.5,-1173.89 690.5,-787.99 690.5,-787.99"/>
<polygon fill="#666666" stroke="#666666" points="694,-787.99 690.5,-777.99 687,-787.99 694,-787.99"/>
<text text-anchor="middle" x="701.5" y="-1045" font-family="Arial" font-size="8.00">uses</text>
</g>
<!-- SERV_IDX -->
<g id="node18" class="node">
<title>SERV_IDX</title>
<path fill="#b2ebf2" stroke="black" d="M843.5,-777.9C843.5,-777.9 736.5,-777.9 736.5,-777.9 730.5,-777.9 724.5,-771.9 724.5,-765.9 724.5,-765.9 724.5,-753.9 724.5,-753.9 724.5,-747.9 730.5,-741.9 736.5,-741.9 736.5,-741.9 843.5,-741.9 843.5,-741.9 849.5,-741.9 855.5,-747.9 855.5,-753.9 855.5,-753.9 855.5,-765.9 855.5,-765.9 855.5,-771.9 849.5,-777.9 843.5,-777.9"/>
<text text-anchor="middle" x="790" y="-757.4" font-family="Arial" font-size="10.00">🔂 Servicio de Indexación</text>
</g>
<!-- PROC_IDX&#45;&gt;SERV_IDX -->
<g id="edge5" class="edge">
<title>PROC_IDX&#45;&gt;SERV_IDX</title>
<path fill="none" stroke="#666666" d="M844.25,-1173.89C844.25,-1173.89 844.25,-787.99 844.25,-787.99"/>
<polygon fill="#666666" stroke="#666666" points="847.75,-787.99 844.25,-777.99 840.75,-787.99 847.75,-787.99"/>
<text text-anchor="middle" x="857.5" y="-1045" font-family="Arial" font-size="8.00">uses</text>
</g>
<!-- CORE -->
<g id="node7" class="node">
<title>CORE</title>
<path fill="#b2ebf2" stroke="black" d="M546,-777.9C546,-777.9 446,-777.9 446,-777.9 440,-777.9 434,-771.9 434,-765.9 434,-765.9 434,-753.9 434,-753.9 434,-747.9 440,-741.9 446,-741.9 446,-741.9 546,-741.9 546,-741.9 552,-741.9 558,-747.9 558,-753.9 558,-753.9 558,-765.9 558,-765.9 558,-771.9 552,-777.9 546,-777.9"/>
<text text-anchor="middle" x="496" y="-762.9" font-family="Arial" font-size="10.00">⚙️ Synapse MAS Core</text>
<text text-anchor="middle" x="496" y="-751.9" font-family="Arial" font-size="10.00">(Application Component)</text>
</g>
<!-- FIDELITY -->
<g id="node8" class="node">
<title>FIDELITY</title>
<path fill="#b2ebf2" stroke="black" d="M1437,-777.9C1437,-777.9 1327,-777.9 1327,-777.9 1321,-777.9 1315,-771.9 1315,-765.9 1315,-765.9 1315,-753.9 1315,-753.9 1315,-747.9 1321,-741.9 1327,-741.9 1327,-741.9 1437,-741.9 1437,-741.9 1443,-741.9 1449,-747.9 1449,-753.9 1449,-753.9 1449,-765.9 1449,-765.9 1449,-771.9 1443,-777.9 1437,-777.9"/>
<text text-anchor="middle" x="1382" y="-757.4" font-family="Arial" font-size="10.00">🛡️ Verificador de Fidelidad</text>
</g>
<!-- SELECTOR -->
<g id="node9" class="node">
<title>SELECTOR</title>
<path fill="#b2ebf2" stroke="black" d="M1284.5,-777.9C1284.5,-777.9 1183.5,-777.9 1183.5,-777.9 1177.5,-777.9 1171.5,-771.9 1171.5,-765.9 1171.5,-765.9 1171.5,-753.9 1171.5,-753.9 1171.5,-747.9 1177.5,-741.9 1183.5,-741.9 1183.5,-741.9 1284.5,-741.9 1284.5,-741.9 1290.5,-741.9 1296.5,-747.9 1296.5,-753.9 1296.5,-753.9 1296.5,-765.9 1296.5,-765.9 1296.5,-771.9 1290.5,-777.9 1284.5,-777.9"/>
<text text-anchor="middle" x="1234" y="-757.4" font-family="Arial" font-size="10.00">🗺️ Selector de Contexto</text>
</g>
<!-- ROUTER -->
<g id="node10" class="node">
<title>ROUTER</title>
<path fill="#b2ebf2" stroke="black" d="M1141,-777.9C1141,-777.9 1041,-777.9 1041,-777.9 1035,-777.9 1029,-771.9 1029,-765.9 1029,-765.9 1029,-753.9 1029,-753.9 1029,-747.9 1035,-741.9 1041,-741.9 1041,-741.9 1141,-741.9 1141,-741.9 1147,-741.9 1153,-747.9 1153,-753.9 1153,-753.9 1153,-765.9 1153,-765.9 1153,-771.9 1147,-777.9 1141,-777.9"/>
<text text-anchor="middle" x="1091" y="-757.4" font-family="Arial" font-size="10.00">⚡ Enrutador Semántico</text>
</g>
<!-- ORCH -->
<g id="node11" class="node">
<title>ORCH</title>
<path fill="#b2ebf2" stroke="black" d="M752,-459.9C752,-459.9 690,-459.9 690,-459.9 684,-459.9 678,-453.9 678,-447.9 678,-447.9 678,-435.9 678,-435.9 678,-429.9 684,-423.9 690,-423.9 690,-423.9 752,-423.9 752,-423.9 758,-423.9 764,-429.9 764,-435.9 764,-435.9 764,-447.9 764,-447.9 764,-453.9 758,-459.9 752,-459.9"/>
<text text-anchor="middle" x="721" y="-439.4" font-family="Arial" font-size="10.00">🎯 Orchestrator</text>
</g>
<!-- ART_PDF -->
<g id="node21" class="node">
<title>ART_PDF</title>
<path fill="#bbdefb" stroke="black" d="M320.5,-123.9C320.5,-123.9 177.5,-123.9 177.5,-123.9 171.5,-123.9 165.5,-117.9 165.5,-111.9 165.5,-111.9 165.5,-99.9 165.5,-99.9 165.5,-93.9 171.5,-87.9 177.5,-87.9 177.5,-87.9 320.5,-87.9 320.5,-87.9 326.5,-87.9 332.5,-93.9 332.5,-99.9 332.5,-99.9 332.5,-111.9 332.5,-111.9 332.5,-117.9 326.5,-123.9 320.5,-123.9"/>
<text text-anchor="middle" x="249" y="-108.9" font-family="Arial" font-size="10.00">📄 PDFs + Imágenes Procesadas</text>
<text text-anchor="middle" x="249" y="-97.9" font-family="Arial" font-size="10.00">(Artifact)</text>
</g>
<!-- ORCH&#45;&gt;ART_PDF -->
<g id="edge13" class="edge">
<title>ORCH&#45;&gt;ART_PDF</title>
<path fill="none" stroke="#666666" d="M706.67,-423.86C706.67,-386.45 706.67,-303.9 706.67,-303.9 706.67,-303.9 321.5,-303.9 321.5,-303.9 321.5,-303.9 321.5,-134.17 321.5,-134.17"/>
<polygon fill="#666666" stroke="#666666" points="325,-134.17 321.5,-124.17 318,-134.17 325,-134.17"/>
<text text-anchor="middle" x="689" y="-295" font-family="Arial" font-size="8.00">writes</text>
</g>
<!-- OCR -->
<g id="node12" class="node">
<title>OCR</title>
<path fill="#b2ebf2" stroke="black" d="M825.5,-459.9C825.5,-459.9 794.5,-459.9 794.5,-459.9 788.5,-459.9 782.5,-453.9 782.5,-447.9 782.5,-447.9 782.5,-435.9 782.5,-435.9 782.5,-429.9 788.5,-423.9 794.5,-423.9 794.5,-423.9 825.5,-423.9 825.5,-423.9 831.5,-423.9 837.5,-429.9 837.5,-435.9 837.5,-435.9 837.5,-447.9 837.5,-447.9 837.5,-453.9 831.5,-459.9 825.5,-459.9"/>
<text text-anchor="middle" x="810" y="-439.4" font-family="Arial" font-size="10.00">📖 OCR</text>
</g>
<!-- DO_CHUNKS -->
<g id="node22" class="node">
<title>DO_CHUNKS</title>
<path fill="#bbdefb" stroke="black" d="M471,-123.9C471,-123.9 363,-123.9 363,-123.9 357,-123.9 351,-117.9 351,-111.9 351,-111.9 351,-99.9 351,-99.9 351,-93.9 357,-87.9 363,-87.9 363,-87.9 471,-87.9 471,-87.9 477,-87.9 483,-93.9 483,-99.9 483,-99.9 483,-111.9 483,-111.9 483,-117.9 477,-123.9 471,-123.9"/>
<text text-anchor="middle" x="417" y="-108.9" font-family="Arial" font-size="10.00">📦 Chunks + Embeddings</text>
<text text-anchor="middle" x="417" y="-97.9" font-family="Arial" font-size="10.00">(Data Object)</text>
</g>
<!-- OCR&#45;&gt;DO_CHUNKS -->
<g id="edge11" class="edge">
<title>OCR&#45;&gt;DO_CHUNKS</title>
<path fill="none" stroke="#666666" d="M790.5,-423.63C790.5,-374.61 790.5,-243.9 790.5,-243.9 790.5,-243.9 476.75,-243.9 476.75,-243.9 476.75,-243.9 476.75,-133.94 476.75,-133.94"/>
<polygon fill="#666666" stroke="#666666" points="480.25,-133.94 476.75,-123.94 473.25,-133.94 480.25,-133.94"/>
<text text-anchor="middle" x="799" y="-295" font-family="Arial" font-size="8.00">writes</text>
</g>
<!-- VIS -->
<g id="node13" class="node">
<title>VIS</title>
<path fill="#b2ebf2" stroke="black" d="M902.5,-459.9C902.5,-459.9 867.5,-459.9 867.5,-459.9 861.5,-459.9 855.5,-453.9 855.5,-447.9 855.5,-447.9 855.5,-435.9 855.5,-435.9 855.5,-429.9 861.5,-423.9 867.5,-423.9 867.5,-423.9 902.5,-423.9 902.5,-423.9 908.5,-423.9 914.5,-429.9 914.5,-435.9 914.5,-435.9 914.5,-447.9 914.5,-447.9 914.5,-453.9 908.5,-459.9 902.5,-459.9"/>
<text text-anchor="middle" x="885" y="-439.4" font-family="Arial" font-size="10.00">👁️ Vision</text>
</g>
<!-- DO_IMGS -->
<g id="node23" class="node">
<title>DO_IMGS</title>
<path fill="#bbdefb" stroke="black" d="M945.5,-123.9C945.5,-123.9 828.5,-123.9 828.5,-123.9 822.5,-123.9 816.5,-117.9 816.5,-111.9 816.5,-111.9 816.5,-99.9 816.5,-99.9 816.5,-93.9 822.5,-87.9 828.5,-87.9 828.5,-87.9 945.5,-87.9 945.5,-87.9 951.5,-87.9 957.5,-93.9 957.5,-99.9 957.5,-99.9 957.5,-111.9 957.5,-111.9 957.5,-117.9 951.5,-123.9 945.5,-123.9"/>
<text text-anchor="middle" x="887" y="-108.9" font-family="Arial" font-size="10.00">🖼️ Imágenes + Embeddings</text>
<text text-anchor="middle" x="887" y="-97.9" font-family="Arial" font-size="10.00">(Data Object)</text>
</g>
<!-- VIS&#45;&gt;DO_IMGS -->
<g id="edge12" class="edge">
<title>VIS&#45;&gt;DO_IMGS</title>
<path fill="none" stroke="#666666" d="M885,-423.84C885,-423.84 885,-134.05 885,-134.05"/>
<polygon fill="#666666" stroke="#666666" points="888.5,-134.05 885,-124.05 881.5,-134.05 888.5,-134.05"/>
<text text-anchor="middle" x="897" y="-295" font-family="Arial" font-size="8.00">writes</text>
</g>
<!-- CLAR -->
<g id="node14" class="node">
<title>CLAR</title>
<path fill="#b2ebf2" stroke="black" d="M642,-459.9C642,-459.9 584,-459.9 584,-459.9 578,-459.9 572,-453.9 572,-447.9 572,-447.9 572,-435.9 572,-435.9 572,-429.9 578,-423.9 584,-423.9 584,-423.9 642,-423.9 642,-423.9 648,-423.9 654,-429.9 654,-435.9 654,-435.9 654,-447.9 654,-447.9 654,-453.9 648,-459.9 642,-459.9"/>
<text text-anchor="middle" x="613" y="-439.4" font-family="Arial" font-size="10.00">🔤 Clarificador</text>
</g>
<!-- PLAN -->
<g id="node15" class="node">
<title>PLAN</title>
<path fill="#b2ebf2" stroke="black" d="M541.5,-459.9C541.5,-459.9 482.5,-459.9 482.5,-459.9 476.5,-459.9 470.5,-453.9 470.5,-447.9 470.5,-447.9 470.5,-435.9 470.5,-435.9 470.5,-429.9 476.5,-423.9 482.5,-423.9 482.5,-423.9 541.5,-423.9 541.5,-423.9 547.5,-423.9 553.5,-429.9 553.5,-435.9 553.5,-435.9 553.5,-447.9 553.5,-447.9 553.5,-453.9 547.5,-459.9 541.5,-459.9"/>
<text text-anchor="middle" x="512" y="-439.4" font-family="Arial" font-size="10.00">📋 Planificador</text>
</g>
<!-- ANAL -->
<g id="node16" class="node">
<title>ANAL</title>
<path fill="#b2ebf2" stroke="black" d="M440.5,-459.9C440.5,-459.9 397.5,-459.9 397.5,-459.9 391.5,-459.9 385.5,-453.9 385.5,-447.9 385.5,-447.9 385.5,-435.9 385.5,-435.9 385.5,-429.9 391.5,-423.9 397.5,-423.9 397.5,-423.9 440.5,-423.9 440.5,-423.9 446.5,-423.9 452.5,-429.9 452.5,-435.9 452.5,-435.9 452.5,-447.9 452.5,-447.9 452.5,-453.9 446.5,-459.9 440.5,-459.9"/>
<text text-anchor="middle" x="419" y="-439.4" font-family="Arial" font-size="10.00">🔬 Analista</text>
</g>
<!-- ANAL&#45;&gt;DO_CHUNKS -->
<g id="edge9" class="edge">
<title>ANAL&#45;&gt;DO_CHUNKS</title>
<path fill="none" stroke="#666666" d="M402.25,-423.84C402.25,-423.84 402.25,-134.05 402.25,-134.05"/>
<polygon fill="#666666" stroke="#666666" points="405.75,-134.05 402.25,-124.05 398.75,-134.05 405.75,-134.05"/>
<text text-anchor="middle" x="427.5" y="-295" font-family="Arial" font-size="8.00">reads</text>
</g>
<!-- DO_SESS -->
<g id="node24" class="node">
<title>DO_SESS</title>
<path fill="#bbdefb" stroke="black" d="M643,-123.9C643,-123.9 513,-123.9 513,-123.9 507,-123.9 501,-117.9 501,-111.9 501,-111.9 501,-99.9 501,-99.9 501,-93.9 507,-87.9 513,-87.9 513,-87.9 643,-87.9 643,-87.9 649,-87.9 655,-93.9 655,-99.9 655,-99.9 655,-111.9 655,-111.9 655,-117.9 649,-123.9 643,-123.9"/>
<text text-anchor="middle" x="578" y="-108.9" font-family="Arial" font-size="10.00">💬 Chat Sessions + Messages</text>
<text text-anchor="middle" x="578" y="-97.9" font-family="Arial" font-size="10.00">(Data Object)</text>
</g>
<!-- ANAL&#45;&gt;DO_SESS -->
<g id="edge8" class="edge">
<title>ANAL&#45;&gt;DO_SESS</title>
<path fill="none" stroke="#666666" d="M419,-423.76C419,-365.03 419,-183.9 419,-183.9 419,-183.9 527.25,-183.9 527.25,-183.9 527.25,-183.9 527.25,-133.99 527.25,-133.99"/>
<polygon fill="#666666" stroke="#666666" points="530.75,-133.99 527.25,-123.99 523.75,-133.99 530.75,-133.99"/>
<text text-anchor="middle" x="530.5" y="-295" font-family="Arial" font-size="8.00">reads</text>
</g>
<!-- DO_ENR -->
<g id="node25" class="node">
<title>DO_ENR</title>
<path fill="#bbdefb" stroke="black" d="M786.5,-123.9C786.5,-123.9 685.5,-123.9 685.5,-123.9 679.5,-123.9 673.5,-117.9 673.5,-111.9 673.5,-111.9 673.5,-99.9 673.5,-99.9 673.5,-93.9 679.5,-87.9 685.5,-87.9 685.5,-87.9 786.5,-87.9 786.5,-87.9 792.5,-87.9 798.5,-93.9 798.5,-99.9 798.5,-99.9 798.5,-111.9 798.5,-111.9 798.5,-117.9 792.5,-123.9 786.5,-123.9"/>
<text text-anchor="middle" x="736" y="-108.9" font-family="Arial" font-size="10.00">💡 Enrichments — HITL</text>
<text text-anchor="middle" x="736" y="-97.9" font-family="Arial" font-size="10.00">(Data Object)</text>
</g>
<!-- ANAL&#45;&gt;DO_ENR -->
<g id="edge10" class="edge">
<title>ANAL&#45;&gt;DO_ENR</title>
<path fill="none" stroke="#666666" d="M435.75,-423.81C435.75,-400.77 435.75,-363.9 435.75,-363.9 435.75,-363.9 735.33,-363.9 735.33,-363.9 735.33,-363.9 735.33,-134.04 735.33,-134.04"/>
<polygon fill="#666666" stroke="#666666" points="738.83,-134.04 735.33,-124.04 731.83,-134.04 738.83,-134.04"/>
<text text-anchor="middle" x="617.5" y="-295" font-family="Arial" font-size="8.00">reads</text>
</g>
<!-- SERV_CHAT&#45;&gt;CLAR -->
<g id="edge6" class="edge">
<title>SERV_CHAT&#45;&gt;CLAR</title>
<path fill="none" stroke="#666666" d="M615,-741.89C615,-741.89 615,-470.11 615,-470.11"/>
<polygon fill="#666666" stroke="#666666" points="618.5,-470.1 615,-460.11 611.5,-470.11 618.5,-470.1"/>
<text text-anchor="middle" x="649.5" y="-631" font-family="Arial" font-size="8.00">realization</text>
</g>
<!-- SERV_IDX&#45;&gt;ORCH -->
<g id="edge7" class="edge">
<title>SERV_IDX&#45;&gt;ORCH</title>
<path fill="none" stroke="#666666" d="M744.25,-741.89C744.25,-741.89 744.25,-470.11 744.25,-470.11"/>
<polygon fill="#666666" stroke="#666666" points="747.75,-470.1 744.25,-460.11 740.75,-470.11 747.75,-470.1"/>
<text text-anchor="middle" x="778.5" y="-631" font-family="Arial" font-size="8.00">realization</text>
</g>
<!-- CURIOUS -->
<g id="node19" class="node">
<title>CURIOUS</title>
<path fill="#b2ebf2" stroke="black" d="M998.5,-777.9C998.5,-777.9 885.5,-777.9 885.5,-777.9 879.5,-777.9 873.5,-771.9 873.5,-765.9 873.5,-765.9 873.5,-753.9 873.5,-753.9 873.5,-747.9 879.5,-741.9 885.5,-741.9 885.5,-741.9 998.5,-741.9 998.5,-741.9 1004.5,-741.9 1010.5,-747.9 1010.5,-753.9 1010.5,-753.9 1010.5,-765.9 1010.5,-765.9 1010.5,-771.9 1004.5,-777.9 998.5,-777.9"/>
<text text-anchor="middle" x="942" y="-757.4" font-family="Arial" font-size="10.00">🤔 Agente Curious — HITL</text>
</g>
<!-- CURIOUS&#45;&gt;DO_ENR -->
<g id="edge14" class="edge">
<title>CURIOUS&#45;&gt;DO_ENR</title>
<path fill="none" stroke="#666666" d="M894,-741.62C894,-691.2 894,-553.9 894,-553.9 894,-553.9 773.25,-553.9 773.25,-553.9 773.25,-553.9 773.25,-134.02 773.25,-134.02"/>
<polygon fill="#666666" stroke="#666666" points="776.75,-134.02 773.25,-124.02 769.75,-134.02 776.75,-134.02"/>
<text text-anchor="middle" x="962" y="-440" font-family="Arial" font-size="8.00">writes</text>
</g>
<!-- LOGGER -->
<g id="node20" class="node">
<title>LOGGER</title>
<path fill="#b2ebf2" stroke="black" d="M403.5,-777.9C403.5,-777.9 322.5,-777.9 322.5,-777.9 316.5,-777.9 310.5,-771.9 310.5,-765.9 310.5,-765.9 310.5,-753.9 310.5,-753.9 310.5,-747.9 316.5,-741.9 322.5,-741.9 322.5,-741.9 403.5,-741.9 403.5,-741.9 409.5,-741.9 415.5,-747.9 415.5,-753.9 415.5,-753.9 415.5,-765.9 415.5,-765.9 415.5,-771.9 409.5,-777.9 403.5,-777.9"/>
<text text-anchor="middle" x="363" y="-757.4" font-family="Arial" font-size="10.00">📈 Logger + FinOps</text>
</g>
<!-- DO_METRICS -->
<g id="node26" class="node">
<title>DO_METRICS</title>
<path fill="#bbdefb" stroke="black" d="M135.5,-123.9C135.5,-123.9 28.5,-123.9 28.5,-123.9 22.5,-123.9 16.5,-117.9 16.5,-111.9 16.5,-111.9 16.5,-99.9 16.5,-99.9 16.5,-93.9 22.5,-87.9 28.5,-87.9 28.5,-87.9 135.5,-87.9 135.5,-87.9 141.5,-87.9 147.5,-93.9 147.5,-99.9 147.5,-99.9 147.5,-111.9 147.5,-111.9 147.5,-117.9 141.5,-123.9 135.5,-123.9"/>
<text text-anchor="middle" x="82" y="-108.9" font-family="Arial" font-size="10.00">📊 Agent Logs + Métricas</text>
<text text-anchor="middle" x="82" y="-97.9" font-family="Arial" font-size="10.00">(Data Object)</text>
</g>
<!-- LOGGER&#45;&gt;DO_METRICS -->
<g id="edge15" class="edge">
<title>LOGGER&#45;&gt;DO_METRICS</title>
<path fill="none" stroke="#666666" d="M310.22,-759.9C234.42,-759.9 103.75,-759.9 103.75,-759.9 103.75,-759.9 103.75,-134.07 103.75,-134.07"/>
<polygon fill="#666666" stroke="#666666" points="107.25,-134.07 103.75,-124.07 100.25,-134.07 107.25,-134.07"/>
<text text-anchor="middle" x="343" y="-440" font-family="Arial" font-size="8.00">writes</text>
</g>
<!-- MISTRAL -->
<g id="node27" class="node">
<title>MISTRAL</title>
<path fill="#c8e6c9" stroke="black" d="M529,-1461.9C529,-1461.9 461,-1461.9 461,-1461.9 455,-1461.9 449,-1455.9 449,-1449.9 449,-1449.9 449,-1437.9 449,-1437.9 449,-1431.9 455,-1425.9 461,-1425.9 461,-1425.9 529,-1425.9 529,-1425.9 535,-1425.9 541,-1431.9 541,-1437.9 541,-1437.9 541,-1449.9 541,-1449.9 541,-1455.9 535,-1461.9 529,-1461.9"/>
<text text-anchor="middle" x="495" y="-1441.4" font-family="Arial" font-size="10.00">☁️ Mistral AI API</text>
</g>
<!-- MISTRAL&#45;&gt;CORE -->
<g id="edge21" class="edge">
<title>MISTRAL&#45;&gt;CORE</title>
<path fill="none" stroke="#666666" d="M500.75,-1425.6C500.75,-1425.6 500.75,-787.93 500.75,-787.93"/>
<polygon fill="#666666" stroke="#666666" points="504.25,-787.93 500.75,-777.93 497.25,-787.93 504.25,-787.93"/>
<text text-anchor="middle" x="509" y="-1190" font-family="Arial" font-size="8.00">serving</text>
</g>
<!-- OPENAI -->
<g id="node28" class="node">
<title>OPENAI</title>
<path fill="#c8e6c9" stroke="black" d="M631,-1461.9C631,-1461.9 571,-1461.9 571,-1461.9 565,-1461.9 559,-1455.9 559,-1449.9 559,-1449.9 559,-1437.9 559,-1437.9 559,-1431.9 565,-1425.9 571,-1425.9 571,-1425.9 631,-1425.9 631,-1425.9 637,-1425.9 643,-1431.9 643,-1437.9 643,-1437.9 643,-1449.9 643,-1449.9 643,-1455.9 637,-1461.9 631,-1461.9"/>
<text text-anchor="middle" x="601" y="-1441.4" font-family="Arial" font-size="10.00">☁️ OpenAI API</text>
</g>
<!-- OPENAI&#45;&gt;CORE -->
<g id="edge20" class="edge">
<title>OPENAI&#45;&gt;CORE</title>
<path fill="none" stroke="#666666" d="M565.5,-1425.6C565.5,-1316.83 565.5,-759.9 565.5,-759.9 565.5,-759.9 564.76,-759.9 564.76,-759.9"/>
<polygon fill="#666666" stroke="#666666" points="568.06,-756.4 558.06,-759.9 568.06,-763.4 568.06,-756.4"/>
<text text-anchor="middle" x="593" y="-1190" font-family="Arial" font-size="8.00">serving</text>
</g>
<!-- R2 -->
<g id="node29" class="node">
<title>R2</title>
<path fill="#c8e6c9" stroke="black" d="M140,-1461.9C140,-1461.9 72,-1461.9 72,-1461.9 66,-1461.9 60,-1455.9 60,-1449.9 60,-1449.9 60,-1437.9 60,-1437.9 60,-1431.9 66,-1425.9 72,-1425.9 72,-1425.9 140,-1425.9 140,-1425.9 146,-1425.9 152,-1431.9 152,-1437.9 152,-1437.9 152,-1449.9 152,-1449.9 152,-1455.9 146,-1461.9 140,-1461.9"/>
<text text-anchor="middle" x="106" y="-1441.4" font-family="Arial" font-size="10.00">🪣 Cloudflare R2</text>
</g>
<!-- R2&#45;&gt;ART_PDF -->
<g id="edge19" class="edge">
<title>R2&#45;&gt;ART_PDF</title>
<path fill="none" stroke="#666666" d="M152.28,-1443.9C156.23,-1443.9 158.75,-1443.9 158.75,-1443.9 158.75,-1443.9 158.75,-105.9 158.75,-105.9 158.75,-105.9 159.4,-105.9 159.4,-105.9"/>
<polygon fill="#666666" stroke="#666666" points="155.24,-109.4 165.24,-105.9 155.24,-102.4 155.24,-109.4"/>
<text text-anchor="middle" x="154.5" y="-758" font-family="Arial" font-size="8.00">hosts</text>
</g>
<!-- NEXT -->
<g id="node30" class="node">
<title>NEXT</title>
<path fill="#c8e6c9" stroke="black" d="M448.5,-1209.9C448.5,-1209.9 303.5,-1209.9 303.5,-1209.9 297.5,-1209.9 291.5,-1203.9 291.5,-1197.9 291.5,-1197.9 291.5,-1185.9 291.5,-1185.9 291.5,-1179.9 297.5,-1173.9 303.5,-1173.9 303.5,-1173.9 448.5,-1173.9 448.5,-1173.9 454.5,-1173.9 460.5,-1179.9 460.5,-1185.9 460.5,-1185.9 460.5,-1197.9 460.5,-1197.9 460.5,-1203.9 454.5,-1209.9 448.5,-1209.9"/>
<text text-anchor="middle" x="376" y="-1189.4" font-family="Arial" font-size="10.00">⚛️ Next.js 16.2.1 + Vercel AI SDK</text>
</g>
<!-- NEXT&#45;&gt;CORE -->
<g id="edge16" class="edge">
<title>NEXT&#45;&gt;CORE</title>
<path fill="none" stroke="#666666" d="M447.25,-1173.89C447.25,-1173.89 447.25,-787.99 447.25,-787.99"/>
<polygon fill="#666666" stroke="#666666" points="450.75,-787.99 447.25,-777.99 443.75,-787.99 450.75,-787.99"/>
<text text-anchor="middle" x="428" y="-1045" font-family="Arial" font-size="8.00">realizes</text>
</g>
<!-- VERCEL -->
<g id="node31" class="node">
<title>VERCEL</title>
<path fill="#c8e6c9" stroke="black" d="M418.5,-1461.9C418.5,-1461.9 333.5,-1461.9 333.5,-1461.9 327.5,-1461.9 321.5,-1455.9 321.5,-1449.9 321.5,-1449.9 321.5,-1437.9 321.5,-1437.9 321.5,-1431.9 327.5,-1425.9 333.5,-1425.9 333.5,-1425.9 418.5,-1425.9 418.5,-1425.9 424.5,-1425.9 430.5,-1431.9 430.5,-1437.9 430.5,-1437.9 430.5,-1449.9 430.5,-1449.9 430.5,-1455.9 424.5,-1461.9 418.5,-1461.9"/>
<text text-anchor="middle" x="376" y="-1441.4" font-family="Arial" font-size="10.00">⚡ Vercel Serverless</text>
</g>
<!-- VERCEL&#45;&gt;NEXT -->
<g id="edge17" class="edge">
<title>VERCEL&#45;&gt;NEXT</title>
<path fill="none" stroke="#666666" d="M376,-1425.78C376,-1425.78 376,-1220.2 376,-1220.2"/>
<polygon fill="#666666" stroke="#666666" points="379.5,-1220.2 376,-1210.2 372.5,-1220.2 379.5,-1220.2"/>
<text text-anchor="middle" x="385.5" y="-1316" font-family="Arial" font-size="8.00">hosts</text>
</g>
<!-- TURSO -->
<g id="node32" class="node">
<title>TURSO</title>
<path fill="#c8e6c9" stroke="black" d="M291.5,-1461.9C291.5,-1461.9 182.5,-1461.9 182.5,-1461.9 176.5,-1461.9 170.5,-1455.9 170.5,-1449.9 170.5,-1449.9 170.5,-1437.9 170.5,-1437.9 170.5,-1431.9 176.5,-1425.9 182.5,-1425.9 182.5,-1425.9 291.5,-1425.9 291.5,-1425.9 297.5,-1425.9 303.5,-1431.9 303.5,-1437.9 303.5,-1437.9 303.5,-1449.9 303.5,-1449.9 303.5,-1455.9 297.5,-1461.9 291.5,-1461.9"/>
<text text-anchor="middle" x="237" y="-1441.4" font-family="Arial" font-size="10.00">🗄️ Turso Cloud — LibSQL</text>
</g>
<!-- TURSO&#45;&gt;DO_CHUNKS -->
<g id="edge18" class="edge">
<title>TURSO&#45;&gt;DO_CHUNKS</title>
<path fill="none" stroke="#666666" d="M231,-1425.78C231,-1307.29 231,-647.9 231,-647.9 231,-647.9 368.25,-647.9 368.25,-647.9 368.25,-647.9 368.25,-133.93 368.25,-133.93"/>
<polygon fill="#666666" stroke="#666666" points="371.75,-133.93 368.25,-123.93 364.75,-133.93 371.75,-133.93"/>
<text text-anchor="middle" x="260.5" y="-758" font-family="Arial" font-size="8.00">hosts</text>
</g>
</g>
</svg>
