<?xml version="1.0" encoding="UTF-8" standalone="no"?>
<!DOCTYPE svg PUBLIC "-//W3C//DTD SVG 1.1//EN"
 "http://www.w3.org/Graphics/SVG/1.1/DTD/svg11.dtd">
<!-- Generated by graphviz version 2.43.0 (0)
 -->
<!-- Title: Synapsis_Dataset_Pipeline Pages: 1 -->
<svg width="864pt" height="864pt"
 viewBox="0.00 0.00 864.00 864.00" xmlns="http://www.w3.org/2000/svg" xmlns:xlink="http://www.w3.org/1999/xlink">
<g id="graph0" class="graph" transform="scale(0.96 0.96) rotate(0) translate(4 894)">
<title>Synapsis_Dataset_Pipeline</title>
<polygon fill="white" stroke="transparent" points="-4,4 -4,-894 894,-894 894,4 -4,4"/>
<g id="clust1" class="cluster">
<title>cluster_sources</title>
<polygon fill="none" stroke="#fbc02d" stroke-dasharray="5,2" points="25,-731.56 25,-874.35 183,-874.35 183,-731.56 25,-731.56"/>
<text text-anchor="middle" x="104" y="-860.75" font-family="Arial" font-size="12.00">Fuentes de Datos</text>
</g>
<g id="clust2" class="cluster">
<title>cluster_swarm</title>
<polygon fill="#f0fbff" stroke="#00acc1" points="8,-15.65 8,-676.79 266,-676.79 266,-15.65 8,-15.65"/>
<text text-anchor="middle" x="137" y="-663.19" font-family="Arial" font-size="12.00">Enjambre de Indexación (Multi&#45;Agent Swarm)</text>
</g>
<g id="clust3" class="cluster">
<title>cluster_storage</title>
<polygon fill="#f0f7ff" stroke="#1976d2" points="274,-176.04 274,-318.84 882,-318.84 882,-176.04 274,-176.04"/>
<text text-anchor="middle" x="578" y="-305.24" font-family="Arial" font-size="12.00">Capa de Persistencia (Turso Cloud)</text>
</g>
<!-- PDF -->
<g id="node1" class="node">
<title>PDF</title>
<path fill="#fff9c4" stroke="black" d="M162.5,-800.65C162.5,-800.65 45.5,-800.65 45.5,-800.65 39.5,-800.65 33.5,-794.65 33.5,-788.65 33.5,-788.65 33.5,-776.65 33.5,-776.65 33.5,-770.65 39.5,-764.65 45.5,-764.65 45.5,-764.65 162.5,-764.65 162.5,-764.65 168.5,-764.65 174.5,-770.65 174.5,-776.65 174.5,-776.65 174.5,-788.65 174.5,-788.65 174.5,-794.65 168.5,-800.65 162.5,-800.65"/>
<text text-anchor="middle" x="104" y="-785.65" font-family="Arial" font-size="10.00">📄 PDF Manuales Schindler</text>
<text text-anchor="middle" x="104" y="-774.65" font-family="Arial" font-size="10.00">(3300, 5500, etc.)</text>
</g>
<!-- OCR -->
<g id="node2" class="node">
<title>OCR</title>
<path fill="#b2ebf2" stroke="black" d="M133.5,-602.65C133.5,-602.65 74.5,-602.65 74.5,-602.65 68.5,-602.65 62.5,-596.65 62.5,-590.65 62.5,-590.65 62.5,-578.65 62.5,-578.65 62.5,-572.65 68.5,-566.65 74.5,-566.65 74.5,-566.65 133.5,-566.65 133.5,-566.65 139.5,-566.65 145.5,-572.65 145.5,-578.65 145.5,-578.65 145.5,-590.65 145.5,-590.65 145.5,-596.65 139.5,-602.65 133.5,-602.65"/>
<text text-anchor="middle" x="104" y="-587.65" font-family="Arial" font-size="10.00">📖 OCR Agent</text>
<text text-anchor="middle" x="104" y="-576.65" font-family="Arial" font-size="10.00">(Mistral&#45;OCR)</text>
</g>
<!-- PDF&#45;&gt;OCR -->
<g id="edge1" class="edge">
<title>PDF&#45;&gt;OCR</title>
<path fill="none" stroke="#555555" d="M104,-764.38C104,-764.38 104,-612.88 104,-612.88"/>
<polygon fill="#555555" stroke="#555555" points="107.5,-612.88 104,-602.88 100.5,-612.88 107.5,-612.88"/>
<text text-anchor="middle" x="119.5" y="-700.45" font-family="Arial" font-size="9.00">Upload</text>
</g>
<!-- ORCH -->
<g id="node3" class="node">
<title>ORCH</title>
<path fill="#b2ebf2" stroke="black" d="M233,-442.65C233,-442.65 171,-442.65 171,-442.65 165,-442.65 159,-436.65 159,-430.65 159,-430.65 159,-418.65 159,-418.65 159,-412.65 165,-406.65 171,-406.65 171,-406.65 233,-406.65 233,-406.65 239,-406.65 245,-412.65 245,-418.65 245,-418.65 245,-430.65 245,-430.65 245,-436.65 239,-442.65 233,-442.65"/>
<text text-anchor="middle" x="202" y="-427.65" font-family="Arial" font-size="10.00">🎯 Orchestrator</text>
<text text-anchor="middle" x="202" y="-416.65" font-family="Arial" font-size="10.00">(GPT&#45;4o&#45;mini)</text>
</g>
<!-- OCR&#45;&gt;ORCH -->
<g id="edge2" class="edge">
<title>OCR&#45;&gt;ORCH</title>
<path fill="none" stroke="#555555" d="M141.17,-566.61C141.17,-524.76 141.17,-424.65 141.17,-424.65 141.17,-424.65 148.76,-424.65 148.76,-424.65"/>
<polygon fill="#555555" stroke="#555555" points="148.76,-428.15 158.76,-424.65 148.76,-421.15 148.76,-428.15"/>
<text text-anchor="middle" x="170" y="-502.45" font-family="Arial" font-size="9.00">Full Text</text>
</g>
<!-- T_IMGS -->
<g id="node9" class="node">
<title>T_IMGS</title>
<path fill="#bbdefb" stroke="black" d="M628,-244.65C628,-244.65 542,-244.65 542,-244.65 536,-244.65 530,-238.65 530,-232.65 530,-232.65 530,-220.65 530,-220.65 530,-214.65 536,-208.65 542,-208.65 542,-208.65 628,-208.65 628,-208.65 634,-208.65 640,-214.65 640,-220.65 640,-220.65 640,-232.65 640,-232.65 640,-238.65 634,-244.65 628,-244.65"/>
<text text-anchor="middle" x="585" y="-229.65" font-family="Arial" font-size="10.00">🗄️ extracted_images</text>
<text text-anchor="middle" x="585" y="-218.65" font-family="Arial" font-size="10.00">(Graphs + OCR)</text>
</g>
<!-- OCR&#45;&gt;T_IMGS -->
<g id="edge6" class="edge">
<title>OCR&#45;&gt;T_IMGS</title>
<path fill="none" stroke="#555555" d="M136.83,-566.5C136.83,-542.89 136.83,-504.65 136.83,-504.65 136.83,-504.65 585,-504.65 585,-504.65 585,-504.65 585,-254.89 585,-254.89"/>
<polygon fill="#555555" stroke="#555555" points="588.5,-254.89 585,-244.89 581.5,-254.89 588.5,-254.89"/>
<text text-anchor="middle" x="443.5" y="-422.45" font-family="Arial" font-size="9.00">Extract Graphics</text>
</g>
<!-- CHUNKER -->
<g id="node4" class="node">
<title>CHUNKER</title>
<path fill="#b2ebf2" stroke="black" d="M233.5,-244.65C233.5,-244.65 144.5,-244.65 144.5,-244.65 138.5,-244.65 132.5,-238.65 132.5,-232.65 132.5,-232.65 132.5,-220.65 132.5,-220.65 132.5,-214.65 138.5,-208.65 144.5,-208.65 144.5,-208.65 233.5,-208.65 233.5,-208.65 239.5,-208.65 245.5,-214.65 245.5,-220.65 245.5,-220.65 245.5,-232.65 245.5,-232.65 245.5,-238.65 239.5,-244.65 233.5,-244.65"/>
<text text-anchor="middle" x="189" y="-229.65" font-family="Arial" font-size="10.00">📦 Semantic Chunker</text>
<text text-anchor="middle" x="189" y="-218.65" font-family="Arial" font-size="10.00">(GPT&#45;4o&#45;mini)</text>
</g>
<!-- ORCH&#45;&gt;CHUNKER -->
<g id="edge3" class="edge">
<title>ORCH&#45;&gt;CHUNKER</title>
<path fill="none" stroke="#555555" d="M202,-406.38C202,-406.38 202,-254.88 202,-254.88"/>
<polygon fill="#555555" stroke="#555555" points="205.5,-254.88 202,-244.88 198.5,-254.88 205.5,-254.88"/>
<text text-anchor="middle" x="208" y="-342.45" font-family="Arial" font-size="9.00">Strategy</text>
</g>
<!-- T_DOCS -->
<g id="node7" class="node">
<title>T_DOCS</title>
<path fill="#bbdefb" stroke="black" d="M372,-244.65C372,-244.65 294,-244.65 294,-244.65 288,-244.65 282,-238.65 282,-232.65 282,-232.65 282,-220.65 282,-220.65 282,-214.65 288,-208.65 294,-208.65 294,-208.65 372,-208.65 372,-208.65 378,-208.65 384,-214.65 384,-220.65 384,-220.65 384,-232.65 384,-232.65 384,-238.65 378,-244.65 372,-244.65"/>
<text text-anchor="middle" x="333" y="-229.65" font-family="Arial" font-size="10.00">🗄️ documents</text>
<text text-anchor="middle" x="333" y="-218.65" font-family="Arial" font-size="10.00">(Metadata &amp; Costs)</text>
</g>
<!-- ORCH&#45;&gt;T_DOCS -->
<g id="edge7" class="edge">
<title>ORCH&#45;&gt;T_DOCS</title>
<path fill="none" stroke="#555555" d="M245.26,-418.65C283.41,-418.65 333,-418.65 333,-418.65 333,-418.65 333,-254.71 333,-254.71"/>
<polygon fill="#555555" stroke="#555555" points="336.5,-254.71 333,-244.71 329.5,-254.71 336.5,-254.71"/>
<text text-anchor="middle" x="298.5" y="-342.45" font-family="Arial" font-size="9.00">Metadata</text>
</g>
<!-- R2 -->
<g id="node11" class="node">
<title>R2</title>
<path fill="#c8e6c9" stroke="black" d="M500,-244.65C500,-244.65 414,-244.65 414,-244.65 408,-244.65 402,-238.65 402,-232.65 402,-232.65 402,-220.65 402,-220.65 402,-214.65 408,-208.65 414,-208.65 414,-208.65 500,-208.65 500,-208.65 506,-208.65 512,-214.65 512,-220.65 512,-220.65 512,-232.65 512,-232.65 512,-238.65 506,-244.65 500,-244.65"/>
<text text-anchor="middle" x="457" y="-229.65" font-family="Arial" font-size="10.00">🪣 Cloudflare R2</text>
<text text-anchor="middle" x="457" y="-218.65" font-family="Arial" font-size="10.00">(Binary PDF Storage)</text>
</g>
<!-- ORCH&#45;&gt;R2 -->
<g id="edge8" class="edge">
<title>ORCH&#45;&gt;R2</title>
<path fill="none" stroke="#555555" d="M245.26,-430.65C318.01,-430.65 457,-430.65 457,-430.65 457,-430.65 457,-254.75 457,-254.75"/>
<polygon fill="#555555" stroke="#555555" points="460.5,-254.75 457,-244.75 453.5,-254.75 460.5,-254.75"/>
<text text-anchor="middle" x="371.5" y="-342.45" font-family="Arial" font-size="9.00">Backup</text>
</g>
<!-- EMBEDDER -->
<g id="node5" class="node">
<title>EMBEDDER</title>
<path fill="#b2ebf2" stroke="black" d="M240,-84.65C240,-84.65 140,-84.65 140,-84.65 134,-84.65 128,-78.65 128,-72.65 128,-72.65 128,-60.65 128,-60.65 128,-54.65 134,-48.65 140,-48.65 140,-48.65 240,-48.65 240,-48.65 246,-48.65 252,-54.65 252,-60.65 252,-60.65 252,-72.65 252,-72.65 252,-78.65 246,-84.65 240,-84.65"/>
<text text-anchor="middle" x="190" y="-69.65" font-family="Arial" font-size="10.00">⚡ Embedder</text>
<text text-anchor="middle" x="190" y="-58.65" font-family="Arial" font-size="10.00">(text&#45;embedding&#45;3&#45;small)</text>
</g>
<!-- CHUNKER&#45;&gt;EMBEDDER -->
<g id="edge4" class="edge">
<title>CHUNKER&#45;&gt;EMBEDDER</title>
<path fill="none" stroke="#555555" d="M189,-208.61C189,-208.61 189,-94.87 189,-94.87"/>
<polygon fill="#555555" stroke="#555555" points="192.5,-94.87 189,-84.87 185.5,-94.87 192.5,-94.87"/>
<text text-anchor="middle" x="221.5" y="-144.45" font-family="Arial" font-size="9.00">Semantic Chunks</text>
</g>
<!-- T_CHUNKS -->
<g id="node8" class="node">
<title>T_CHUNKS</title>
<path fill="#bbdefb" stroke="black" d="M862,-244.65C862,-244.65 774,-244.65 774,-244.65 768,-244.65 762,-238.65 762,-232.65 762,-232.65 762,-220.65 762,-220.65 762,-214.65 768,-208.65 774,-208.65 774,-208.65 862,-208.65 862,-208.65 868,-208.65 874,-214.65 874,-220.65 874,-220.65 874,-232.65 874,-232.65 874,-238.65 868,-244.65 862,-244.65"/>
<text text-anchor="middle" x="818" y="-229.65" font-family="Arial" font-size="10.00">🗄️ document_chunks</text>
<text text-anchor="middle" x="818" y="-218.65" font-family="Arial" font-size="10.00">(Text + Vectors)</text>
</g>
<!-- EMBEDDER&#45;&gt;T_CHUNKS -->
<g id="edge5" class="edge">
<title>EMBEDDER&#45;&gt;T_CHUNKS</title>
<path fill="none" stroke="#555555" d="M252.22,-66.65C410.86,-66.65 818,-66.65 818,-66.65 818,-66.65 818,-198.61 818,-198.61"/>
<polygon fill="#555555" stroke="#555555" points="814.5,-198.61 818,-208.61 821.5,-198.61 814.5,-198.61"/>
<text text-anchor="middle" x="574.5" y="-144.45" font-family="Arial" font-size="9.00">Vector Insert</text>
</g>
<!-- CURIOUS -->
<g id="node6" class="node">
<title>CURIOUS</title>
<path fill="#b2ebf2" stroke="black" d="M246,-602.65C246,-602.65 176,-602.65 176,-602.65 170,-602.65 164,-596.65 164,-590.65 164,-590.65 164,-578.65 164,-578.65 164,-572.65 170,-566.65 176,-566.65 176,-566.65 246,-566.65 246,-566.65 252,-566.65 258,-572.65 258,-578.65 258,-578.65 258,-590.65 258,-590.65 258,-596.65 252,-602.65 246,-602.65"/>
<text text-anchor="middle" x="211" y="-587.65" font-family="Arial" font-size="10.00">🤔 Agent Curious</text>
<text text-anchor="middle" x="211" y="-576.65" font-family="Arial" font-size="10.00">(Gap Detection)</text>
</g>
<!-- T_ENR -->
<g id="node10" class="node">
<title>T_ENR</title>
<path fill="#bbdefb" stroke="black" d="M732,-244.65C732,-244.65 670,-244.65 670,-244.65 664,-244.65 658,-238.65 658,-232.65 658,-232.65 658,-220.65 658,-220.65 658,-214.65 664,-208.65 670,-208.65 670,-208.65 732,-208.65 732,-208.65 738,-208.65 744,-214.65 744,-220.65 744,-220.65 744,-232.65 744,-232.65 744,-238.65 738,-244.65 732,-244.65"/>
<text text-anchor="middle" x="701" y="-229.65" font-family="Arial" font-size="10.00">🗄️ enrichments</text>
<text text-anchor="middle" x="701" y="-218.65" font-family="Arial" font-size="10.00">(HITL Q&amp;A)</text>
</g>
<!-- CURIOUS&#45;&gt;T_ENR -->
<g id="edge10" class="edge">
<title>CURIOUS&#45;&gt;T_ENR</title>
<path fill="none" stroke="#555555" d="M258.43,-578.65C381.4,-578.65 701,-578.65 701,-578.65 701,-578.65 701,-255.08 701,-255.08"/>
<polygon fill="#555555" stroke="#555555" points="704.5,-255.08 701,-245.08 697.5,-255.08 704.5,-255.08"/>
<text text-anchor="middle" x="677" y="-422.45" font-family="Arial" font-size="9.00">Generate HITL Gaps</text>
</g>
<!-- T_CHUNKS&#45;&gt;CURIOUS -->
<g id="edge9" class="edge">
<title>T_CHUNKS&#45;&gt;CURIOUS</title>
<path fill="none" stroke="#555555" d="M818,-244.7C818,-318.15 818,-590.65 818,-590.65 818,-590.65 268.13,-590.65 268.13,-590.65"/>
<polygon fill="#555555" stroke="#555555" points="268.13,-587.15 258.13,-590.65 268.13,-594.15 268.13,-587.15"/>
<text text-anchor="middle" x="843.5" y="-422.45" font-family="Arial" font-size="9.00">Scan Chunks</text>
</g>
</g>
</svg>
